# xmcd CD database file
#
# Track frame offsets:
#	150
#	13550
#	28777
#	47070
#	58965
#	79076
#	89975
#	109272
#	123867
#	141386
#	164442
#	177717
#	202472
#	219310
#
# Disc length: 3103 seconds
#
# Revision: 0
# Processed by: cddbd v1.5.2PL0 Copyright (c) Steve Scherf et al.
# Submitted via: cdripper 1,0,43,1226
#
DISCID=db0c1d0e
DTITLE=Seth MacFarlane - Music Is Better Than Words
DYEAR=2011
DGENRE=Jazz
TTITLE0=It's Anybody's Spring
TTITLE1=Music Is Better Than Words
TTITLE2=Anytime, Anywhere
TTITLE3=The Night They Invented Champagne
TTITLE4=Two Sleepy People
TTITLE5=You're The Cream In My Coffee
TTITLE6=Something Good
TTITLE7=Nine O'Clock
TTITLE8=Love Won't Let You Get Away
TTITLE9=It's Easy To Remember
TTITLE10=The Sadder But Wiser Girl
TTITLE11=Laura
TTITLE12=You And I
TTITLE13=She's Wonderful Too
EXTD=YEAR: 2011
EXTT0=
EXTT1=
EXTT2=
EXTT3=
EXTT4=
EXTT5=
EXTT6=
EXTT7=
EXTT8=
EXTT9=
EXTT10=
EXTT11=
EXTT12=
EXTT13=
PLAYORDER=
